<svg width="180" height="62" viewBox="0 0 180 62" fill="none" xmlns="http://www.w3.org/2000/svg">
<rect width="180" height="62" rx="5" fill="#39393F"/>
<g clip-path="url(#clip0_145:21)">
<path d="M26.6001 18.8667L27.0369 18.1179C26.9052 18.041 26.7555 18.0003 26.603 17.9998C26.4505 17.9992 26.3006 18.039 26.1684 18.1149C26.0361 18.1909 25.9263 18.3004 25.8499 18.4324C25.7735 18.5644 25.7334 18.7142 25.7334 18.8667H26.6001ZM26.6001 43.1333H25.7334C25.7334 43.2858 25.7735 43.4356 25.8499 43.5676C25.9263 43.6996 26.0361 43.8091 26.1684 43.8851C26.3006 43.9611 26.4505 44.0008 26.603 44.0003C26.7555 43.9997 26.9052 43.959 27.0369 43.8821L26.6001 43.1333ZM47.4001 31L47.8369 31.7488C47.9678 31.6725 48.0764 31.5632 48.1519 31.4318C48.2274 31.3004 48.2672 31.1516 48.2672 31C48.2672 30.8485 48.2274 30.6996 48.1519 30.5682C48.0764 30.4368 47.9678 30.3275 47.8369 30.2512L47.4001 31ZM25.7334 18.8667V43.1333H27.4667V18.8667H25.7334ZM27.0369 43.8821L47.8369 31.7488L46.9633 30.2512L26.1633 42.3845L27.0369 43.8821ZM47.8369 30.2512L27.0369 18.1179L26.1633 19.6155L46.9633 31.7488L47.8369 30.2512ZM27.1703 40.3184L41.037 28.1851L39.8965 26.8816L26.0298 39.0149L27.1703 40.3184ZM26.0298 22.9851L39.8965 35.1184L41.037 33.8149L27.1703 21.6816L26.0298 22.9851Z" fill="white"/>
</g>
<path d="M72 19.836V20.34C72 21.436 71.624 22.348 70.872 23.076C70.12 23.796 69.124 24.156 67.884 24.156C66.604 24.156 65.544 23.736 64.704 22.896C63.872 22.048 63.456 21.016 63.456 19.8C63.456 18.584 63.872 17.556 64.704 16.716C65.544 15.868 66.596 15.444 67.86 15.444C68.636 15.444 69.348 15.632 69.996 16.008C70.644 16.376 71.144 16.864 71.496 17.472L70.536 18.036C70.296 17.58 69.932 17.216 69.444 16.944C68.964 16.664 68.432 16.524 67.848 16.524C66.888 16.524 66.1 16.84 65.484 17.472C64.868 18.096 64.56 18.872 64.56 19.8C64.56 20.728 64.868 21.504 65.484 22.128C66.108 22.752 66.912 23.064 67.896 23.064C68.736 23.064 69.416 22.86 69.936 22.452C70.456 22.036 70.772 21.5 70.884 20.844H67.8V19.836H72ZM73.621 21.48C73.725 22.016 73.969 22.432 74.353 22.728C74.745 23.024 75.225 23.172 75.793 23.172C76.585 23.172 77.161 22.88 77.521 22.296L78.409 22.8C77.825 23.704 76.945 24.156 75.769 24.156C74.817 24.156 74.041 23.86 73.441 23.268C72.849 22.668 72.553 21.912 72.553 21C72.553 20.096 72.845 19.344 73.429 18.744C74.013 18.144 74.769 17.844 75.697 17.844C76.577 17.844 77.293 18.156 77.845 18.78C78.405 19.396 78.685 20.14 78.685 21.012C78.685 21.164 78.673 21.32 78.649 21.48H73.621ZM75.697 18.828C75.137 18.828 74.673 18.988 74.305 19.308C73.937 19.62 73.709 20.04 73.621 20.568H77.629C77.541 20 77.317 19.568 76.957 19.272C76.597 18.976 76.177 18.828 75.697 18.828ZM82.6133 19.008H81.0173V22.26C81.0173 22.556 81.0733 22.768 81.1853 22.896C81.3053 23.016 81.4853 23.08 81.7253 23.088C81.9653 23.088 82.2613 23.08 82.6133 23.064V24C81.7013 24.12 81.0333 24.048 80.6093 23.784C80.1853 23.512 79.9733 23.004 79.9733 22.26V19.008H78.7853V18H79.9733V16.632L81.0173 16.32V18H82.6133V19.008ZM86.6925 16.908C86.4925 16.908 86.3245 16.84 86.1885 16.704C86.0525 16.568 85.9845 16.404 85.9845 16.212C85.9845 16.02 86.0525 15.856 86.1885 15.72C86.3245 15.576 86.4925 15.504 86.6925 15.504C86.8845 15.504 87.0485 15.576 87.1845 15.72C87.3205 15.856 87.3885 16.02 87.3885 16.212C87.3885 16.404 87.3205 16.568 87.1845 16.704C87.0485 16.84 86.8845 16.908 86.6925 16.908ZM86.1645 24V18H87.2085V24H86.1645ZM91.7052 19.008H90.1092V22.26C90.1092 22.556 90.1652 22.768 90.2772 22.896C90.3972 23.016 90.5772 23.08 90.8172 23.088C91.0572 23.088 91.3532 23.08 91.7052 23.064V24C90.7932 24.12 90.1252 24.048 89.7012 23.784C89.2772 23.512 89.0652 23.004 89.0652 22.26V19.008H87.8772V18H89.0652V16.632L90.1092 16.32V18H91.7052V19.008ZM100.32 23.244C99.7044 23.852 98.9564 24.156 98.0764 24.156C97.1964 24.156 96.4484 23.852 95.8324 23.244C95.2244 22.636 94.9204 21.888 94.9204 21C94.9204 20.112 95.2244 19.364 95.8324 18.756C96.4484 18.148 97.1964 17.844 98.0764 17.844C98.9564 17.844 99.7044 18.148 100.32 18.756C100.936 19.364 101.244 20.112 101.244 21C101.244 21.888 100.936 22.636 100.32 23.244ZM98.0764 23.136C98.6764 23.136 99.1804 22.932 99.5884 22.524C99.9964 22.116 100.2 21.608 100.2 21C100.2 20.392 99.9964 19.884 99.5884 19.476C99.1804 19.068 98.6764 18.864 98.0764 18.864C97.4844 18.864 96.9844 19.068 96.5764 19.476C96.1684 19.884 95.9644 20.392 95.9644 21C95.9644 21.608 96.1684 22.116 96.5764 22.524C96.9844 22.932 97.4844 23.136 98.0764 23.136ZM105.103 17.844C105.807 17.844 106.371 18.068 106.795 18.516C107.219 18.956 107.431 19.556 107.431 20.316V24H106.387V20.376C106.387 19.888 106.255 19.512 105.991 19.248C105.727 18.976 105.363 18.84 104.899 18.84C104.379 18.84 103.959 19.004 103.639 19.332C103.319 19.652 103.159 20.148 103.159 20.82V24H102.115V18H103.159V18.864C103.583 18.184 104.231 17.844 105.103 17.844Z" fill="white"/>
<path d="M75.518 36.484V37.348C75.518 39.076 74.948 40.492 73.808 41.596C72.668 42.688 71.18 43.234 69.344 43.234C67.4 43.234 65.792 42.604 64.52 41.344C63.26 40.084 62.63 38.536 62.63 36.7C62.63 34.876 63.26 33.334 64.52 32.074C65.792 30.802 67.364 30.166 69.236 30.166C70.412 30.166 71.486 30.436 72.458 30.976C73.43 31.516 74.186 32.242 74.726 33.154L72.944 34.18C72.608 33.58 72.11 33.1 71.45 32.74C70.79 32.368 70.052 32.182 69.236 32.182C67.916 32.182 66.83 32.614 65.978 33.478C65.126 34.342 64.7 35.422 64.7 36.718C64.7 38.014 65.126 39.088 65.978 39.94C66.842 40.792 67.97 41.218 69.362 41.218C70.478 41.218 71.384 40.96 72.08 40.444C72.788 39.916 73.238 39.214 73.43 38.338H69.218V36.484H75.518ZM80.9924 43.234C79.6724 43.234 78.5504 42.778 77.6264 41.866C76.7024 40.954 76.2404 39.832 76.2404 38.5C76.2404 37.168 76.7024 36.046 77.6264 35.134C78.5504 34.222 79.6724 33.766 80.9924 33.766C82.3244 33.766 83.4464 34.222 84.3584 35.134C85.2824 36.046 85.7444 37.168 85.7444 38.5C85.7444 39.832 85.2824 40.954 84.3584 41.866C83.4464 42.778 82.3244 43.234 80.9924 43.234ZM78.9944 40.534C79.5344 41.074 80.2004 41.344 80.9924 41.344C81.7844 41.344 82.4504 41.074 82.9904 40.534C83.5304 39.994 83.8004 39.316 83.8004 38.5C83.8004 37.684 83.5304 37.006 82.9904 36.466C82.4504 35.926 81.7844 35.656 80.9924 35.656C80.2004 35.656 79.5344 35.926 78.9944 36.466C78.4544 37.006 78.1844 37.684 78.1844 38.5C78.1844 39.316 78.4544 39.994 78.9944 40.534ZM91.2102 43.234C89.8902 43.234 88.7682 42.778 87.8442 41.866C86.9202 40.954 86.4582 39.832 86.4582 38.5C86.4582 37.168 86.9202 36.046 87.8442 35.134C88.7682 34.222 89.8902 33.766 91.2102 33.766C92.5422 33.766 93.6642 34.222 94.5762 35.134C95.5002 36.046 95.9622 37.168 95.9622 38.5C95.9622 39.832 95.5002 40.954 94.5762 41.866C93.6642 42.778 92.5422 43.234 91.2102 43.234ZM89.2122 40.534C89.7522 41.074 90.4182 41.344 91.2102 41.344C92.0022 41.344 92.6682 41.074 93.2082 40.534C93.7482 39.994 94.0182 39.316 94.0182 38.5C94.0182 37.684 93.7482 37.006 93.2082 36.466C92.6682 35.926 92.0022 35.656 91.2102 35.656C90.4182 35.656 89.7522 35.926 89.2122 36.466C88.6722 37.006 88.4022 37.684 88.4022 38.5C88.4022 39.316 88.6722 39.994 89.2122 40.534ZM104.344 34H106.252V42.586C106.252 43.954 105.802 45.004 104.902 45.736C104.002 46.468 102.91 46.834 101.626 46.834C99.55 46.834 98.128 46.108 97.36 44.656L99.034 43.684C99.502 44.608 100.378 45.07 101.662 45.07C102.502 45.07 103.156 44.848 103.624 44.404C104.104 43.972 104.344 43.366 104.344 42.586V41.488C103.612 42.532 102.568 43.054 101.212 43.054C99.94 43.054 98.866 42.604 97.99 41.704C97.114 40.792 96.676 39.694 96.676 38.41C96.676 37.126 97.114 36.034 97.99 35.134C98.866 34.222 99.94 33.766 101.212 33.766C102.568 33.766 103.612 34.288 104.344 35.332V34ZM99.43 40.426C99.982 40.966 100.666 41.236 101.482 41.236C102.298 41.236 102.976 40.966 103.516 40.426C104.068 39.886 104.344 39.214 104.344 38.41C104.344 37.606 104.068 36.934 103.516 36.394C102.976 35.854 102.298 35.584 101.482 35.584C100.666 35.584 99.982 35.854 99.43 36.394C98.89 36.934 98.62 37.606 98.62 38.41C98.62 39.214 98.89 39.886 99.43 40.426ZM107.978 43V29.86H109.922V43H107.978ZM113.169 39.328C113.313 40.012 113.643 40.54 114.159 40.912C114.675 41.272 115.305 41.452 116.049 41.452C117.081 41.452 117.855 41.08 118.371 40.336L119.973 41.272C119.085 42.58 117.771 43.234 116.031 43.234C114.567 43.234 113.385 42.79 112.485 41.902C111.585 41.002 111.135 39.868 111.135 38.5C111.135 37.156 111.579 36.034 112.467 35.134C113.355 34.222 114.495 33.766 115.887 33.766C117.207 33.766 118.287 34.228 119.127 35.152C119.979 36.076 120.405 37.198 120.405 38.518C120.405 38.722 120.381 38.992 120.333 39.328H113.169ZM113.151 37.744H118.443C118.311 37.012 118.005 36.46 117.525 36.088C117.057 35.716 116.505 35.53 115.869 35.53C115.149 35.53 114.549 35.728 114.069 36.124C113.589 36.52 113.283 37.06 113.151 37.744ZM130.63 33.766C131.866 33.766 132.922 34.228 133.798 35.152C134.674 36.064 135.112 37.18 135.112 38.5C135.112 39.832 134.674 40.954 133.798 41.866C132.922 42.778 131.866 43.234 130.63 43.234C129.262 43.234 128.212 42.73 127.48 41.722V46.6H125.536V34H127.48V35.296C128.212 34.276 129.262 33.766 130.63 33.766ZM128.29 40.57C128.83 41.11 129.508 41.38 130.324 41.38C131.14 41.38 131.818 41.11 132.358 40.57C132.898 40.018 133.168 39.328 133.168 38.5C133.168 37.672 132.898 36.988 132.358 36.448C131.818 35.896 131.14 35.62 130.324 35.62C129.508 35.62 128.83 35.896 128.29 36.448C127.75 36.988 127.48 37.672 127.48 38.5C127.48 39.328 127.75 40.018 128.29 40.57ZM136.334 43V29.86H138.278V43H136.334ZM147.123 34H149.067V43H147.123V41.704C146.391 42.724 145.341 43.234 143.973 43.234C142.737 43.234 141.681 42.778 140.805 41.866C139.929 40.942 139.491 39.82 139.491 38.5C139.491 37.168 139.929 36.046 140.805 35.134C141.681 34.222 142.737 33.766 143.973 33.766C145.341 33.766 146.391 34.27 147.123 35.278V34ZM142.245 40.57C142.785 41.11 143.463 41.38 144.279 41.38C145.095 41.38 145.773 41.11 146.313 40.57C146.853 40.018 147.123 39.328 147.123 38.5C147.123 37.672 146.853 36.988 146.313 36.448C145.773 35.896 145.095 35.62 144.279 35.62C143.463 35.62 142.785 35.896 142.245 36.448C141.705 36.988 141.435 37.672 141.435 38.5C141.435 39.328 141.705 40.018 142.245 40.57ZM156.859 34H158.929L155.473 43.288C154.609 45.616 153.145 46.72 151.081 46.6V44.782C151.693 44.818 152.185 44.686 152.557 44.386C152.929 44.098 153.235 43.642 153.475 43.018L153.565 42.838L149.749 34H151.873L154.555 40.534L156.859 34Z" fill="white"/>
<defs>
<clipPath id="clip0_145:21">
<rect width="26" height="26" fill="white" transform="translate(24 18)"/>
</clipPath>
</defs>
</svg>
